<svg width="278" height="95" viewBox="0 0 278 95" fill="none" xmlns="http://www.w3.org/2000/svg">
<path d="M57.8125 80.3125V93H4.875V80.3125H57.8125ZM56.6875 11.8125L10.4375 93H0.3125V82.875L46.75 2H56.6875V11.8125ZM51.0625 2V14.75H0.25V2H51.0625ZM131.125 40.0625V55.5625C131.125 61.9792 130.375 67.6042 128.875 72.4375C127.417 77.2708 125.292 81.3125 122.5 84.5625C119.75 87.7708 116.417 90.1875 112.5 91.8125C108.625 93.4375 104.292 94.25 99.5 94.25C94.75 94.25 90.4167 93.4375 86.5 91.8125C82.625 90.1875 79.2708 87.7708 76.4375 84.5625C73.6458 81.3125 71.4792 77.2708 69.9375 72.4375C68.4375 67.6042 67.6875 61.9792 67.6875 55.5625V40.0625C67.6875 33.5625 68.4375 27.875 69.9375 23C71.4375 18.0833 73.5833 13.9792 76.375 10.6875C79.2083 7.39583 82.5625 4.91667 86.4375 3.25C90.3542 1.58333 94.6667 0.75 99.375 0.75C104.167 0.75 108.5 1.58333 112.375 3.25C116.292 4.91667 119.646 7.39583 122.438 10.6875C125.229 13.9792 127.375 18.0833 128.875 23C130.375 27.875 131.125 33.5625 131.125 40.0625ZM116.062 55.5625V39.9375C116.062 35.3125 115.688 31.3542 114.938 28.0625C114.229 24.7292 113.167 22.0208 111.75 19.9375C110.333 17.8125 108.583 16.25 106.5 15.25C104.458 14.2083 102.083 13.6875 99.375 13.6875C96.75 13.6875 94.3958 14.2083 92.3125 15.25C90.2708 16.25 88.5208 17.8125 87.0625 19.9375C85.6458 22.0208 84.5625 24.7292 83.8125 28.0625C83.1042 31.3542 82.75 35.3125 82.75 39.9375V55.5625C82.75 60.1042 83.125 64.0208 83.875 67.3125C84.625 70.5625 85.7083 73.2292 87.125 75.3125C88.5833 77.3542 90.3542 78.875 92.4375 79.875C94.5208 80.875 96.875 81.375 99.5 81.375C102.167 81.375 104.542 80.875 106.625 79.875C108.708 78.875 110.438 77.3542 111.812 75.3125C113.229 73.2292 114.292 70.5625 115 67.3125C115.708 64.0208 116.062 60.1042 116.062 55.5625ZM146.562 2H174.062C180.062 2 185.146 3.04167 189.312 5.125C193.479 7.20833 196.646 10.2917 198.812 14.375C201.021 18.4167 202.125 23.4375 202.125 29.4375C202.125 33.9792 201.438 37.9792 200.062 41.4375C198.729 44.8958 196.792 47.8125 194.25 50.1875C191.708 52.5208 188.646 54.3333 185.062 55.625L180.625 58.0625H157.375L157.312 45.3125H173.688C176.646 45.3125 179.104 44.6667 181.062 43.375C183.021 42.0833 184.479 40.2917 185.438 38C186.438 35.7083 186.938 33.1042 186.938 30.1875C186.938 27.0625 186.5 24.3542 185.625 22.0625C184.75 19.7292 183.375 17.9375 181.5 16.6875C179.625 15.3958 177.146 14.75 174.062 14.75H161.75V93H146.562V2ZM188.938 93L171.625 52.125L187.438 52.0625L205.188 92.1875V93H188.938ZM231.188 2V93H216V2H231.188ZM276.625 2L246.312 45.9375L228.125 68.25L225.25 52.375L237.812 33.75L258.25 2H276.625ZM259.938 93L236.875 50L247.312 39.1875L277.875 93H259.938Z" fill="white"/>
</svg>
